<svg id="Layer_1" data-name="Layer 1" xmlns="http://www.w3.org/2000/svg" xmlns:xlink="http://www.w3.org/1999/xlink" viewBox="0 0 512 330"><defs><style>.cls-1{fill:url(#linear-gradient);}.cls-2{fill:#134692;}.cls-3{fill:#2a7ad7;}.cls-4{fill:url(#linear-gradient-2);}.cls-5{fill:url(#linear-gradient-3);}.cls-6{fill:url(#linear-gradient-4);}.cls-7{fill:url(#linear-gradient-5);}.cls-8{fill:url(#linear-gradient-6);}.cls-9{fill:url(#linear-gradient-7);}.cls-10{fill:url(#linear-gradient-8);}.cls-11{fill:url(#linear-gradient-9);}.cls-12{fill:url(#linear-gradient-10);}.cls-13{fill:url(#linear-gradient-11);}.cls-14{fill:url(#linear-gradient-12);}.cls-15{fill:url(#linear-gradient-13);}.cls-16{fill:url(#linear-gradient-14);}.cls-17{fill:#d2ecff;}.cls-18{fill:url(#linear-gradient-15);}.cls-19{fill:url(#linear-gradient-16);}.cls-20{fill:url(#linear-gradient-17);}.cls-21{fill:url(#linear-gradient-18);}.cls-22{fill:url(#linear-gradient-19);}.cls-23{fill:url(#linear-gradient-20);}</style><linearGradient id="linear-gradient" x1="255.85" y1="294.99" x2="255.85" y2="258.33" gradientUnits="userSpaceOnUse"><stop offset="0" stop-color="#134692"/><stop offset="1" stop-color="#2a7ad7"/></linearGradient><linearGradient id="linear-gradient-2" x1="268.8" y1="204.15" x2="245.15" y2="186.33" gradientUnits="userSpaceOnUse"><stop offset="0" stop-color="#fff"/><stop offset="0.17" stop-color="#f6fbff"/><stop offset="0.44" stop-color="#ddefff"/><stop offset="0.79" stop-color="#b5dcff"/><stop offset="1" stop-color="#99cfff"/></linearGradient><linearGradient id="linear-gradient-3" x1="226.45" y1="216.76" x2="240.15" y2="206.04" gradientUnits="userSpaceOnUse"><stop offset="0" stop-color="#2a7ad7"/><stop offset="0.51" stop-color="#4e97ea"/><stop offset="1" stop-color="#75b7ff"/></linearGradient><linearGradient id="linear-gradient-4" x1="238.86" y1="228.83" x2="269.97" y2="209.63" gradientUnits="userSpaceOnUse"><stop offset="0" stop-color="#134692"/><stop offset="0.55" stop-color="#1f61b6"/><stop offset="1" stop-color="#2a7ad7"/></linearGradient><linearGradient id="linear-gradient-5" x1="273.58" y1="206.87" x2="286.98" y2="217.97" gradientUnits="userSpaceOnUse"><stop offset="0" stop-color="#d2ecff"/><stop offset="1" stop-color="#2a7ad7"/></linearGradient><linearGradient id="linear-gradient-6" x1="266.85" y1="187.23" x2="277.58" y2="184.78" gradientUnits="userSpaceOnUse"><stop offset="0" stop-color="#75b7ff"/><stop offset="1" stop-color="#2a7ad7"/></linearGradient><linearGradient id="linear-gradient-7" x1="256" y1="174.82" x2="256" y2="160.03" xlink:href="#linear-gradient-6"/><linearGradient id="linear-gradient-8" x1="234.76" y1="184.39" x2="243.35" y2="188.8" xlink:href="#linear-gradient-4"/><linearGradient id="linear-gradient-9" x1="5118.36" y1="144.07" x2="5083.84" y2="78.95" gradientTransform="matrix(-1, 0, 0, 1, 5307.51, 0)" gradientUnits="userSpaceOnUse"><stop offset="0" stop-color="#99cfff"/><stop offset="1" stop-color="#2a7ad7"/></linearGradient><linearGradient id="linear-gradient-10" x1="5129.38" y1="187.49" x2="5107.57" y2="167.86" gradientTransform="matrix(-1, 0, 0, 1, 5307.51, 0)" xlink:href="#linear-gradient-4"/><linearGradient id="linear-gradient-11" x1="5153.36" y1="177.75" x2="5138.43" y2="160.58" gradientTransform="matrix(-1, 0, 0, 1, 5307.51, 0)" xlink:href="#linear-gradient-4"/><linearGradient id="linear-gradient-12" x1="5104.68" y1="87.79" x2="5112.68" y2="82.86" gradientTransform="matrix(-1, 0, 0, 1, 5307.51, 0)" gradientUnits="userSpaceOnUse"><stop offset="0" stop-color="#2a7ad7"/><stop offset="1" stop-color="#134692"/></linearGradient><linearGradient id="linear-gradient-13" x1="5064" y1="59.18" x2="5081.9" y2="59.18" gradientTransform="matrix(-1, 0, 0, 1, 5307.51, 0)" xlink:href="#linear-gradient-3"/><linearGradient id="linear-gradient-14" x1="5084.11" y1="153.84" x2="5098.63" y2="144.98" gradientTransform="matrix(-1, 0, 0, 1, 5307.51, 0)" xlink:href="#linear-gradient-4"/><linearGradient id="linear-gradient-15" x1="188.29" y1="144.07" x2="153.78" y2="78.95" gradientTransform="translate(134.55)" xlink:href="#linear-gradient-9"/><linearGradient id="linear-gradient-16" x1="199.32" y1="187.5" x2="177.51" y2="167.86" gradientTransform="translate(134.55)" xlink:href="#linear-gradient-4"/><linearGradient id="linear-gradient-17" x1="223.3" y1="177.75" x2="208.37" y2="160.58" gradientTransform="translate(134.55)" xlink:href="#linear-gradient-4"/><linearGradient id="linear-gradient-18" x1="174.62" y1="87.79" x2="182.61" y2="82.86" gradientTransform="translate(134.55)" xlink:href="#linear-gradient-12"/><linearGradient id="linear-gradient-19" x1="133.94" y1="59.18" x2="151.83" y2="59.18" gradientTransform="translate(134.55)" xlink:href="#linear-gradient-3"/><linearGradient id="linear-gradient-20" x1="154.05" y1="153.84" x2="168.57" y2="144.98" gradientTransform="translate(134.55)" xlink:href="#linear-gradient-4"/></defs><path class="cls-1" d="M58.47,258.41H72.32L88.12,295H77.26l-3.33-7.76H56.86L53.54,295H42.67Zm12.58,22.17-5.65-13-5.66,13Zm23.16-22.17h34.92v6.65H105.3v8h21.06v6.65H105.3V295H94.21Zm41,0H146.3V295H135.22ZM19.4,272.27v6.65h7.2v9.42H13c-1.27,0-1.94-.5-1.94-1.55V266.62c0-1.06.67-1.56,1.94-1.56H35.47v-6.65H6.93L0,265.34V295H30.76l6.92-6.93V272.27Zm154.34-13.86h11.91l15.79,21.95V258.41h11.09V295H200.61L184.82,273V295H173.74Zm47.38,0h35.47v6.65H232.21v7.49h21.61v6.65H232.21v9.14h24.38V295H221.12Zm41.4,0h41v6.65h-15V295H277.49V265.06h-15Zm57.39,0,7.26,25.77,8.54-25.77h11.64l8.53,25.77,7.26-25.77H374L363.69,295H349.56l-8-24.22-8,24.22H319.36l-10.25-36.58Zm151.89-.08h11.09v14.13l14.68-14.13h13.58l-15.68,15.13,16.23,21.45H499.29l-11-14.58-5.37,5.21v9.37H471.8Zm-62.64.08H387.27l-6.93,6.93V295h31.31l6.93-6.93V258.41Zm-1.67,28.38c0,1-.66,1.55-1.94,1.55H393.36c-1.27,0-1.94-.5-1.94-1.55V266.62c0-1.06.67-1.56,1.94-1.56h12.19c1.28,0,1.94.5,1.94,1.56Zm48.78-5.65h7.48V258.41H434.1l-6.93,6.93V295h11.08V281.14h6L453.44,295h12Zm-3.61-8.21c0,1.06-.66,1.56-1.94,1.56H438.25v-9.43h12.47c1.28,0,1.94.5,1.94,1.56Z"/><path class="cls-2" d="M5.64,327.51V315.72H.15v-2.44H13.89v2.44H8.28v11.79Z"/><path class="cls-2" d="M19.52,327.51V313.28h2.64v14.23Zm1.1-5.78,0-2.48H32.77v2.48Zm10.87,5.78V313.28h2.64v14.23Z"/><path class="cls-2" d="M41.39,327.51V313.28H53.55v2.4H44v9.43h9.64v2.4Zm1.42-6.1v-2.36h9.7v2.36Z"/><path class="cls-2" d="M70.52,327.51V313.28H73.1L84.2,324.4l-.25.08c-.07-.45-.12-.91-.17-1.37s-.08-.94-.11-1.42,0-.95-.07-1.42,0-.94,0-1.39,0-.9,0-1.33v-4.27h2.62v14.23H83.55l-11.14-11,.32-.14c0,.23.06.5.08.81s.07.65.11,1,.07.75.11,1.17.06.84.08,1.28,0,.87,0,1.31v5.51Z"/><path class="cls-2" d="M93.4,327.51V313.28h12.16v2.4H96v9.43h9.63v2.4Zm1.43-6.1v-2.36h9.69v2.36Z"/><path class="cls-2" d="M116.27,327.51V315.72h-5.49v-2.44h13.74v2.44h-5.61v11.79Z"/><path class="cls-2" d="M133.61,327.51l-5.14-14.23h2.84l2.79,7.84c.09.3.2.63.31,1s.23.71.34,1.08.21.72.3,1.05.18.65.25.92l-.86,0c.11-.37.24-.78.4-1.23s.33-.92.52-1.39.38-.94.57-1.39l2.46-5.61h2.4l2.39,5.57.55,1.35c.19.47.36.93.52,1.37a7.89,7.89,0,0,1,.34,1.19l-.78.1c.06-.22.12-.46.2-.72s.15-.55.22-.85.16-.59.25-.88.19-.58.29-.87.19-.54.28-.77l3.13-7.72h2.75l-5.77,14.23h-1.92l-4-9.33.45.08-4,9.25Z"/><path class="cls-2" d="M163.86,327.71a10.59,10.59,0,0,1-3.51-.56,8.57,8.57,0,0,1-2.78-1.56,7.14,7.14,0,0,1-1.81-2.34,6.54,6.54,0,0,1-.65-2.88,6.46,6.46,0,0,1,.65-2.87,7,7,0,0,1,1.81-2.34,8.78,8.78,0,0,1,2.78-1.57,11.25,11.25,0,0,1,7,0,8.62,8.62,0,0,1,2.77,1.57A7.34,7.34,0,0,1,172,317.5a6.46,6.46,0,0,1,.65,2.87,6.54,6.54,0,0,1-.65,2.88,7.45,7.45,0,0,1-1.82,2.34,8.42,8.42,0,0,1-2.77,1.56A10.57,10.57,0,0,1,163.86,327.71Zm0-2.52a7.47,7.47,0,0,0,2.43-.37,5.82,5.82,0,0,0,1.91-1,4.61,4.61,0,0,0,1.26-1.54,4.19,4.19,0,0,0,0-3.78A4.57,4.57,0,0,0,168.2,317a5.84,5.84,0,0,0-1.91-1,7.74,7.74,0,0,0-2.43-.37,7.85,7.85,0,0,0-2.44.37,5.69,5.69,0,0,0-1.92,1,4.63,4.63,0,0,0-1.24,1.53,4.28,4.28,0,0,0,0,3.78,4.66,4.66,0,0,0,1.24,1.54,5.68,5.68,0,0,0,1.92,1A7.57,7.57,0,0,0,163.86,325.19Z"/><path class="cls-2" d="M178.79,327.51V313.28h8.3a5.38,5.38,0,0,1,2.52.57,4.48,4.48,0,0,1,1.74,1.57,4.38,4.38,0,0,1-.07,4.67,5,5,0,0,1-1.86,1.67,5.4,5.4,0,0,1-2.6.62h-5.44v5.13Zm2.59-7.42h5.18a2.86,2.86,0,0,0,1.32-.32,2.75,2.75,0,0,0,1-.83,2,2,0,0,0,.36-1.17,1.71,1.71,0,0,0-.36-1.08,2.67,2.67,0,0,0-1-.75,3.12,3.12,0,0,0-1.34-.28h-5.16Zm8.23,7.42-4.84-6.43,2.81-.51,5.24,7Z"/><path class="cls-2" d="M199.38,327.51V313.28H202v14.23Zm1.83-3.48-.28-2.66,10.35-8.09H215Zm10.17,3.48-6.18-7.61,1.6-1.95,8,9.56Z"/><path class="cls-2" d="M239,327.71a10.68,10.68,0,0,1-3.51-.56,8.62,8.62,0,0,1-2.77-1.56,7.17,7.17,0,0,1-1.82-2.34,6.53,6.53,0,0,1-.64-2.88,6.46,6.46,0,0,1,.64-2.87,7.06,7.06,0,0,1,1.82-2.34,8.84,8.84,0,0,1,2.77-1.57,11.28,11.28,0,0,1,7,0,8.67,8.67,0,0,1,2.76,1.57,7.2,7.2,0,0,1,1.82,2.34,6.46,6.46,0,0,1,.65,2.87,6.54,6.54,0,0,1-.65,2.88,7.3,7.3,0,0,1-1.82,2.34,8.47,8.47,0,0,1-2.76,1.56A10.63,10.63,0,0,1,239,327.71Zm0-2.52a7.49,7.49,0,0,0,2.44-.37,5.92,5.92,0,0,0,1.91-1,4.86,4.86,0,0,0,1.26-1.54,4.19,4.19,0,0,0,0-3.78,4.82,4.82,0,0,0-1.26-1.53,5.94,5.94,0,0,0-1.91-1,7.76,7.76,0,0,0-2.44-.37,8,8,0,0,0-2.44.37,5.89,5.89,0,0,0-1.92,1,4.76,4.76,0,0,0-1.24,1.53,4.28,4.28,0,0,0,0,3.78,4.79,4.79,0,0,0,1.24,1.54,5.87,5.87,0,0,0,1.92,1A7.66,7.66,0,0,0,239,325.19Z"/><path class="cls-2" d="M254,327.51V313.28h2.64v14.23Zm1-5.63v-2.4h10v2.4Zm.28-6.16v-2.44h10.61v2.44Z"/><path class="cls-2" d="M289.9,327.71a11.33,11.33,0,0,1-3.29-.47,8.36,8.36,0,0,1-2.71-1.38,6.38,6.38,0,0,1-1.85-2.29,7.15,7.15,0,0,1-.67-3.2,6.23,6.23,0,0,1,.68-2.87,7.38,7.38,0,0,1,1.89-2.32,9,9,0,0,1,2.84-1.54,11,11,0,0,1,3.49-.55,11.52,11.52,0,0,1,2.9.35,10.47,10.47,0,0,1,2.34.89,6.82,6.82,0,0,1,1.59,1.16l-1.66,1.87a9.13,9.13,0,0,0-1.5-.92,8.46,8.46,0,0,0-1.73-.64,7.86,7.86,0,0,0-4.35.12,6.13,6.13,0,0,0-1.93,1,4.78,4.78,0,0,0-1.29,1.52,4,4,0,0,0-.46,1.91,4.8,4.8,0,0,0,.48,2.23,4.3,4.3,0,0,0,1.33,1.51,6.17,6.17,0,0,0,1.93.87,9,9,0,0,0,2.21.27,10.48,10.48,0,0,0,2.23-.22,7.09,7.09,0,0,0,1.79-.63,3.59,3.59,0,0,0,1.17-1,1.79,1.79,0,0,0,.38-1.23l0-.3.39.59h-5.94v-2.32h8.27c0,.2,0,.38.06.55a3.28,3.28,0,0,1,0,.39v.24a5.93,5.93,0,0,1-.63,2.8,5.31,5.31,0,0,1-1.76,2,8.27,8.27,0,0,1-2.73,1.18A14,14,0,0,1,289.9,327.71Z"/><path class="cls-2" d="M302.4,327.51l7-14.23h2.8l7,14.23h-2.83l-4.57-9.31c-.14-.27-.27-.53-.39-.79s-.24-.5-.34-.75l-.33-.77c-.11-.26-.21-.55-.3-.84l.69,0c-.11.31-.22.6-.33.88s-.22.55-.34.8-.25.51-.37.77l-.37.78-4.55,9.25Zm3.11-3.05,1-2.3h8.46l.39,2.3Z"/><path class="cls-2" d="M324.45,327.51V313.28H327l6.49,8h-1.2l6.48-8h2.5v14.23H338.6V322c0-1.13,0-2.18.08-3.17a29.43,29.43,0,0,1,.32-3l.27.95-5.77,6.93h-1.34l-5.78-6.95.29-.93a29.43,29.43,0,0,1,.32,3c.06,1,.08,2,.08,3.17v5.55Z"/><path class="cls-2" d="M348.46,327.51V313.28h12.15v2.4h-9.55v9.43h9.63v2.4Zm1.42-6.1v-2.36h9.69v2.36Z"/><path class="cls-2" d="M377.58,327.51V313.28h2.65v14.23Zm1-5.63v-2.4h10v2.4Zm.28-6.16v-2.44h10.61v2.44Z"/><path class="cls-2" d="M396.18,327.51V325h3.76v-9.27h-3.76v-2.48h10.17v2.48h-3.77V325h3.77v2.48Z"/><path class="cls-2" d="M413.83,327.51V313.28h2.58l11.1,11.12-.25.08c-.07-.45-.12-.91-.17-1.37s-.09-.94-.11-1.42-.05-.95-.07-1.42,0-.94-.05-1.39,0-.9,0-1.33v-4.27h2.63v14.23h-2.63l-11.13-11,.32-.14c0,.23.06.5.08.81s.06.65.1,1,.08.75.12,1.17.06.84.08,1.28,0,.87,0,1.31v5.51Z"/><path class="cls-2" d="M434.78,327.51l7-14.23h2.81l6.95,14.23h-2.82l-4.58-9.31c-.13-.27-.26-.53-.38-.79s-.24-.5-.35-.75l-.33-.77c-.1-.26-.21-.55-.3-.84l.69,0-.32.88c-.11.28-.23.55-.35.8s-.24.51-.37.77l-.36.78-4.55,9.25Zm3.11-3.05,1-2.3h8.45l.39,2.3Z"/><path class="cls-2" d="M456.83,327.51V313.28h2.59l11.09,11.12-.24.08c-.07-.45-.12-.91-.17-1.37s-.09-.94-.11-1.42-.05-.95-.07-1.42,0-.94-.05-1.39,0-.9,0-1.33v-4.27h2.63v14.23h-2.63l-11.13-11,.32-.14c0,.23.05.5.08.81s.06.65.1,1,.08.75.12,1.17.06.84.08,1.28,0,.87,0,1.31v5.51Z"/><path class="cls-2" d="M487.1,327.71a10.1,10.1,0,0,1-3.3-.52,7.87,7.87,0,0,1-2.68-1.49,6.93,6.93,0,0,1-1.8-2.33,6.73,6.73,0,0,1-.65-3,6.36,6.36,0,0,1,.67-2.92,7.11,7.11,0,0,1,1.83-2.3,8.49,8.49,0,0,1,2.68-1.52,9.61,9.61,0,0,1,3.23-.54,10.24,10.24,0,0,1,2.63.34,11.46,11.46,0,0,1,2.29.86,8.39,8.39,0,0,1,1.69,1.12l-1.53,2.18a9,9,0,0,0-1.46-1,7.45,7.45,0,0,0-1.74-.7,8,8,0,0,0-2.08-.25,6.22,6.22,0,0,0-2,.32,5.7,5.7,0,0,0-1.77.95,4.55,4.55,0,0,0-1.26,1.5,4.13,4.13,0,0,0-.47,2,4.29,4.29,0,0,0,.49,2.1,4.54,4.54,0,0,0,1.33,1.5,6.1,6.1,0,0,0,1.9.92,7.55,7.55,0,0,0,2.17.32,6.73,6.73,0,0,0,2.16-.32,7.4,7.4,0,0,0,1.65-.77c.49-.3.92-.6,1.32-.88l1.26,2.13a13.12,13.12,0,0,1-1.59,1,11.55,11.55,0,0,1-2.27.92A9.4,9.4,0,0,1,487.1,327.71Z"/><path class="cls-2" d="M499.76,327.51V313.28h12.16v2.4h-9.55v9.43H512v2.4Zm1.43-6.1v-2.36h9.69v2.36Z"/><polygon class="cls-3" points="223.62 210.75 249.15 159.7 262.85 159.7 288.38 210.75 281.53 221.84 230.47 221.84 223.62 210.75"/><polygon class="cls-3" points="269.4 2.29 269.4 116.06 307.33 191.91 349.35 191.91 365.77 162.9 269.4 2.29"/><polygon class="cls-3" points="162.65 191.91 146.23 162.9 242.59 2.29 242.59 116.06 204.67 191.91 162.65 191.91"/><path class="cls-4" d="M252.36,174.25l-13.57,27.14,3.64,5.89h27.14l3.64-5.89-13.57-27.14Z"/><polygon class="cls-5" points="238.79 201.39 223.62 210.75 230.47 221.84 242.43 207.28 238.79 201.39"/><polygon class="cls-6" points="242.43 207.28 269.57 207.28 281.53 221.84 230.47 221.84 242.43 207.28"/><polygon class="cls-7" points="269.57 207.28 273.21 201.39 288.38 210.75 281.53 221.84 269.57 207.28"/><polygon class="cls-8" points="262.85 159.7 259.64 174.25 273.21 201.39 288.38 210.75 262.85 159.7"/><polygon class="cls-9" points="249.15 159.7 252.36 174.25 259.64 174.25 262.85 159.7 249.15 159.7"/><polygon class="cls-10" points="238.79 201.39 252.36 174.25 249.15 159.7 223.62 210.75 238.79 201.39"/><path class="cls-11" d="M224.7,48.85V115l-22.06,44.1H178.21l-9.55-16.86Z"/><polygon class="cls-12" points="202.64 159.11 204.67 191.91 162.65 191.91 178.21 159.11 202.64 159.11"/><polygon class="cls-13" points="168.66 142.25 178.21 159.11 162.65 191.91 146.23 162.9 168.66 142.25"/><polygon class="cls-14" points="242.59 2.29 224.7 48.85 168.66 142.25 146.23 162.9 242.59 2.29"/><polygon class="cls-15" points="242.59 2.29 242.59 116.06 224.7 115.01 224.7 48.85 242.59 2.29"/><polygon class="cls-16" points="204.67 191.91 202.64 159.11 224.7 115.01 242.59 116.06 204.67 191.91"/><polygon class="cls-17" points="168.66 142.25 176.41 162.9 202.64 159.11 178.21 159.11 168.66 142.25"/><path class="cls-18" d="M287.3,48.85V115l22.06,44.1h24.43l9.55-16.86Z"/><polygon class="cls-19" points="309.36 159.11 307.33 191.91 349.35 191.91 333.8 159.11 309.36 159.11"/><polygon class="cls-20" points="343.34 142.25 333.8 159.11 349.35 191.91 365.77 162.9 343.34 142.25"/><polygon class="cls-21" points="269.4 2.29 287.3 48.85 343.34 142.25 365.77 162.9 269.4 2.29"/><polygon class="cls-22" points="269.4 2.29 269.4 116.06 287.3 115.01 287.3 48.85 269.4 2.29"/><polygon class="cls-23" points="307.33 191.91 309.36 159.11 287.3 115.01 269.4 116.06 307.33 191.91"/><polygon class="cls-17" points="343.34 142.25 335.59 162.9 309.36 159.11 333.8 159.11 343.34 142.25"/></svg>